<?xml version="1.0" encoding="UTF-8"?>
<svg id="Layer_1" xmlns="http://www.w3.org/2000/svg" viewBox="0 0 400 100" width="200px">
<defs><style>.cls-1{fill:#fc0;stroke-width:0px;}</style></defs>
<path class="cls-1" d="M26.34,26.33c0-1.07-.05-2.02-.14-2.84-.09-.82-.27-1.56-.52-2.23-.25-.66-.62-1.31-1.09-1.94-.47-.63-1.06-1.29-1.75-1.99v-.76h16.67v.76c-.63.7-1.18,1.36-1.66,1.99-.47.63-.87,1.28-1.18,1.94-.32.66-.54,1.41-.66,2.23-.13.82-.19,1.77-.19,2.84v23.68h26.33v-23.68c0-1.07-.05-2.02-.14-2.84-.09-.82-.27-1.56-.52-2.23-.25-.66-.62-1.31-1.09-1.94-.47-.63-1.06-1.29-1.75-1.99v-.76h16.67v.76c-.63.7-1.18,1.36-1.66,1.99-.47.63-.87,1.28-1.18,1.94-.32.66-.54,1.41-.66,2.23-.13.82-.19,1.77-.19,2.84v47.26c0,1.07.06,2.02.19,2.84.13.82.35,1.56.66,2.23.32.66.71,1.31,1.18,1.94s1.03,1.29,1.66,1.99v.76h-16.67v-.76c.69-.69,1.28-1.36,1.75-1.99.47-.63.84-1.28,1.09-1.94.25-.66.43-1.41.52-2.23.09-.82.14-1.77.14-2.84v-21.97h-26.33v21.97c0,1.07.06,2.02.19,2.84.13.82.35,1.56.66,2.23.32.66.71,1.31,1.18,1.94s1.03,1.29,1.66,1.99v.76h-16.67v-.76c.69-.69,1.28-1.36,1.75-1.99s.84-1.28,1.09-1.94c.25-.66.43-1.41.52-2.23.09-.82.14-1.77.14-2.84V26.33Z"/>
<path class="cls-1" d="M108.08,16.57h.95l20.17,53.51c1.2,3.22,2.32,5.98,3.36,8.29,1.04,2.31,2.16,3.71,3.36,4.22v.76h-17.52v-.76c1.33-.69,2.1-2,2.32-3.93.22-1.93-.05-3.93-.81-6.01l-4.36-12.03-22.45-.28v-.57l-5.11,13.45c-.38,1.01-.57,2.02-.57,3.03s.13,1.94.38,2.79c.25.85.6,1.58,1.04,2.18.44.6.91,1.06,1.42,1.37v.76h-11.27v-.76c.76-.63,1.47-1.2,2.13-1.71.66-.5,1.29-1.09,1.89-1.75.6-.66,1.18-1.5,1.75-2.51.57-1.01,1.17-2.3,1.8-3.88l21.5-56.17ZM115.09,59.2l-10.61-29.17-10.99,28.89,21.6.28Z"/>
<path class="cls-1" d="M163.58,16.57c3.28,0,6.33.32,9.14.95,2.81.63,5.26,1.71,7.34,3.22,2.08,1.52,3.73,3.52,4.93,6.01,1.2,2.5,1.8,5.57,1.8,9.23,0,2.97-.4,5.53-1.18,7.67-.79,2.15-1.89,3.93-3.32,5.35-1.42,1.42-3.13,2.53-5.11,3.32-1.99.79-4.18,1.34-6.58,1.66,1.7.44,3.13,1.18,4.26,2.23s2.1,2.27,2.89,3.69c.79,1.42,1.45,2.98,1.99,4.69.54,1.71,1.03,3.47,1.47,5.3.63,2.59,1.56,4.71,2.79,6.35,1.23,1.64,2.67,2.46,4.31,2.46h1.04c.38,0,.77-.09,1.18-.28.41-.19.85-.5,1.33-.95.47-.44.96-1.14,1.47-2.08l.85.28c-.57,1.7-1.37,3.11-2.42,4.22s-2.18,1.94-3.41,2.51c-1.23.57-2.48.92-3.74,1.04-1.26.13-2.43.09-3.5-.09-1.58-.32-2.91-.91-3.98-1.8-1.07-.88-1.99-1.99-2.75-3.32-.76-1.33-1.41-2.83-1.94-4.5-.54-1.67-1.09-3.39-1.66-5.16-.44-1.39-.88-2.79-1.33-4.21-.44-1.42-.98-2.78-1.61-4.07-.63-1.29-1.39-2.46-2.27-3.5-.88-1.04-1.99-1.85-3.32-2.42l-8.9-.09-.19,19.32c0,1.01.06,1.91.19,2.7.13.79.33,1.53.62,2.23.28.7.66,1.37,1.14,2.04s1.06,1.34,1.75,2.04v.76h-16.67v-.76c1.45-1.45,2.42-2.81,2.89-4.07.47-1.26.71-2.9.71-4.92V25.1c0-1.45-.24-2.75-.71-3.88s-1.44-2.43-2.89-3.88v-.76h23.39ZM153.35,52.85h8.43c2.08,0,4.03-.38,5.82-1.14s3.38-1.85,4.74-3.27c1.36-1.42,2.43-3.13,3.22-5.11.79-1.99,1.18-4.22,1.18-6.68,0-2.97-.44-5.6-1.33-7.91-.88-2.3-2.05-4.25-3.5-5.82-1.45-1.58-3.16-2.76-5.11-3.55-1.96-.79-4.04-1.18-6.25-1.18l-7.29.09.09,34.57Z"/>
<path class="cls-1" d="M194.84,50.01c0-4.55.58-8.84,1.75-12.88,1.17-4.04,2.9-7.58,5.21-10.61,2.3-3.03,5.16-5.45,8.57-7.25,3.41-1.8,7.39-2.7,11.94-2.7s8.44.9,11.89,2.7c3.44,1.8,6.31,4.22,8.62,7.25s4.04,6.57,5.21,10.61c1.17,4.04,1.75,8.34,1.75,12.88s-.58,8.84-1.75,12.88c-1.17,4.04-2.9,7.58-5.21,10.61s-5.18,5.43-8.62,7.2c-3.44,1.77-7.4,2.65-11.89,2.65s-8.45-.88-11.89-2.65c-3.44-1.77-6.31-4.17-8.62-7.2-2.31-3.03-4.04-6.57-5.21-10.61-1.17-4.04-1.75-8.34-1.75-12.88ZM204.97,49.82c0,3.35.27,6.9.81,10.65.53,3.76,1.47,7.23,2.79,10.42,1.32,3.19,3.09,5.82,5.3,7.91s5.02,3.13,8.43,3.13,6.03-1.06,8.24-3.17c2.21-2.12,3.99-4.77,5.35-7.96,1.36-3.19,2.32-6.66,2.89-10.42.57-3.76.85-7.28.85-10.56s-.27-6.88-.81-10.61c-.54-3.73-1.47-7.17-2.79-10.32-1.32-3.16-3.09-5.76-5.3-7.81-2.21-2.05-5.02-3.08-8.43-3.08s-6.33,1.03-8.57,3.08c-2.24,2.05-4.01,4.64-5.3,7.77-1.3,3.13-2.2,6.55-2.7,10.28-.5,3.73-.76,7.29-.76,10.7Z"/>
<path class="cls-1" d="M282.92,81.93c1.39,0,2.81-.22,4.26-.66,1.45-.44,2.87-1.07,4.26-1.89,1.39-.82,2.71-1.85,3.98-3.08,1.26-1.23,2.37-2.64,3.32-4.22h.76l-2.37,11.27h-41.39v-.76c.69-.69,1.28-1.36,1.75-1.99.47-.63.84-1.28,1.09-1.94.25-.66.43-1.41.52-2.23.09-.82.14-1.77.14-2.84l-.28-47.26c0-1.07-.05-2.02-.14-2.84-.09-.82-.27-1.56-.52-2.23-.25-.66-.62-1.31-1.09-1.94-.47-.63-1.06-1.29-1.75-1.99v-.76h41.39l2.37,11.27h-.76c-.95-1.58-2.05-2.98-3.32-4.22-1.26-1.23-2.59-2.26-3.98-3.08-1.39-.82-2.81-1.45-4.26-1.89-1.45-.44-2.87-.66-4.26-.66h-14.11v30.88c2.15-.06,4.51-.11,7.1-.14,2.59-.03,5.08-.3,7.48-.81,1.26-.25,2.43-.91,3.5-1.99,1.07-1.07,2.05-2.21,2.94-3.41h.66v12.31h-.66c-.69-1.14-1.63-2-2.79-2.6-1.17-.6-2.38-1.03-3.65-1.28-2.4-.44-4.89-.65-7.48-.62-2.59.03-4.96.02-7.1-.05l.28,31.64h14.11Z"/>
<path class="cls-1" d="M372.43,16.57v.76c-1.08.89-1.85,1.77-2.32,2.65-.47.88-.68,1.99-.62,3.32l2.56,48.78c.13,2.72.55,4.86,1.28,6.44.73,1.58,2,2.94,3.84,4.07v.76h-18.47v-.76c1.45-.88,2.51-2.16,3.17-3.84.66-1.67.93-3.55.81-5.64l-2.75-51.05-21.31,56.64h-1.33l-24.25-54.37-2.37,47.74c-.06,2.08.43,4.14,1.47,6.16s2.45,3.47,4.22,4.36v.76h-12.41v-.76c1.83-1.14,3.13-2.64,3.88-4.5.76-1.86,1.2-3.87,1.32-6.01l2.56-48.78c.13-2.71-1.11-4.7-3.69-5.97v-.76h12.22l21.69,49.54,18.56-49.63,11.93.09Z"/></svg>